<?xml version="1.0" encoding="UTF-8" standalone="no"?>
<!-- Created with Inkscape (http://www.inkscape.org/) -->

<svg
   width="209.55mm"
   height="182.29794mm"
   viewBox="0 0 209.55 182.29794"
   version="1.1"
   id="svg1"
   xmlns="http://www.w3.org/2000/svg"><defs
     id="defs1" /><g
     id="layer1"
     transform="translate(-1.5247853,-57.018593)"><path
       id="path10"
       style="opacity:1;fill:#004455;fill-opacity:1;stroke:none;stroke-width:0.499999;stroke-linecap:round;stroke-linejoin:round;stroke-dasharray:none"
       d="m 106.48985,64.790255 -10.965226,35.168909 2.92747,11.049966 -3.87832,-4.28759 -1.24437,5.82445 1.61179,6.00274 a 31.617708,31.617708 0 0 0 -1.49706,0.55862 l -2.80914,-4.96869 -4.97127,-3.28042 0.2434,5.8353 -5.61723,-10.02988 -32.345314,-17.631474 16.302365,32.700844 8.860441,5.43894 -3.607015,-0.15038 3.28042,4.97128 4.968689,2.80913 a 31.617708,31.617708 0 0 0 -0.558106,1.49655 l -6.003251,-1.61127 -5.824451,1.24436 4.417302,3.99564 0.320394,0.0863 -11.665438,-2.98846 -34.830432,11.04274 35.168912,10.96523 10.61434,-2.81224 -4.048332,3.66231 5.824451,1.24437 6.038391,-1.62109 a 31.617708,31.617708 0 0 0 0.54622,1.46451 l -4.968689,2.80913 -3.28042,4.97128 3.606498,-0.14987 -8.859924,5.43843 -16.302365,32.70085 32.345314,-17.63148 5.61723,-10.02988 -0.2434,5.8353 4.97127,-3.28042 2.80914,-4.96869 a 31.617708,31.617708 0 0 0 1.49706,0.55862 l -1.61179,6.00274 1.24437,5.82445 3.83491,-4.23954 -2.88406,10.88564 10.965226,35.16892 11.04273,-34.83043 -2.87993,-11.24273 3.87264,4.28139 1.24488,-5.82445 -1.6216,-6.03839 a 31.617708,31.617708 0 0 0 1.46502,-0.54622 l 2.80913,4.96869 4.97128,3.28042 -0.2434,-5.83479 5.61671,10.02937 32.34531,17.63148 -16.30184,-32.70085 -8.85993,-5.43843 3.60598,0.14987 -3.28042,-4.97128 -4.96869,-2.80861 a 31.617708,31.617708 0 0 0 0.54674,-1.46554 l 6.03839,1.6216 5.82445,-1.24437 -4.04833,-3.66231 10.61382,2.81224 35.16892,-10.96523 -34.83044,-11.04274 -11.67215,2.99001 0.32711,-0.0879 4.4173,-3.99564 -5.82445,-1.24436 -5.93865,1.59473 a 31.617708,31.617708 0 0 0 -0.62684,-1.47846 l 4.97282,-2.81068 3.28042,-4.97179 -3.60546,0.15038 8.85941,-5.43843 16.30184,-32.700844 -32.34531,17.631474 -5.61671,10.02936 0.2434,-5.83478 -4.97128,3.28042 -2.8112,4.97231 a 31.617708,31.617708 0 0 0 -1.4459,-0.61392 l 1.60455,-5.97431 -1.24488,-5.82445 -3.91398,4.32738 2.92127,-11.404466 z m 123.19351,158.973245 3.39979,22.91643 z" /></g></svg>